<svg xmlns="http://www.w3.org/2000/svg" width="88" height="128">
  <style>
    line, path, circle, rect, polygon{stroke:black;stroke-width:2;stroke-opacity:1;fill-opacity:1;stroke-linecap:round;stroke-linejoin:miter;}text{font-family:Iosevka Fixed, monospace;font-size:14px;}rect.backdrop{stroke:none;fill:white;}.broken{stroke-dasharray:8;}.filled{fill:black;}.bg_filled{fill:white;}.nofill{fill:white;}.end_marked_arrow{marker-end:url(#arrow);}.start_marked_arrow{marker-start:url(#arrow);}.end_marked_diamond{marker-end:url(#diamond);}.start_marked_diamond{marker-start:url(#diamond);}.end_marked_circle{marker-end:url(#circle);}.start_marked_circle{marker-start:url(#circle);}.end_marked_open_circle{marker-end:url(#open_circle);}.start_marked_open_circle{marker-start:url(#open_circle);}.end_marked_big_open_circle{marker-end:url(#big_open_circle);}.start_marked_big_open_circle{marker-start:url(#big_open_circle);}
    <!--separator-->
    
  </style>
  <defs>
    <marker id="arrow" viewBox="-2 -2 8 8" refX="4" refY="2" markerWidth="7" markerHeight="7" orient="auto-start-reverse">
      <polygon points="0,0 0,4 4,2 0,0"></polygon>
    </marker>
    <marker id="diamond" viewBox="-2 -2 8 8" refX="4" refY="2" markerWidth="7" markerHeight="7" orient="auto-start-reverse">
      <polygon points="0,2 2,0 4,2 2,4 0,2"></polygon>
    </marker>
    <marker id="circle" viewBox="0 0 8 8" refX="4" refY="4" markerWidth="7" markerHeight="7" orient="auto-start-reverse">
      <circle cx="4" cy="4" r="2" class="filled"></circle>
    </marker>
    <marker id="open_circle" viewBox="0 0 8 8" refX="4" refY="4" markerWidth="7" markerHeight="7" orient="auto-start-reverse">
      <circle cx="4" cy="4" r="2" class="bg_filled"></circle>
    </marker>
    <marker id="big_open_circle" viewBox="0 0 8 8" refX="4" refY="4" markerWidth="7" markerHeight="7" orient="auto-start-reverse">
      <circle cx="4" cy="4" r="3" class="bg_filled"></circle>
    </marker>
  </defs>
  <text x="18" y="76" >Brew</text>
  <g>
    <path d="M 16,0 A 16,16 0,0,0 16,16" class="nofill"></path>
    <path d="M 16,16 A 16,16 0,0,1 16,32" class="nofill"></path>
  </g>
  <g>
    <path d="M 32,0 A 16,16 0,0,0 32,16" class="nofill"></path>
    <path d="M 32,16 A 16,16 0,0,1 32,32" class="nofill"></path>
  </g>
  <g>
    <path d="M 48,0 A 16,16 0,0,0 48,16" class="nofill"></path>
    <path d="M 48,16 A 16,16 0,0,1 48,32" class="nofill"></path>
  </g>
  <g>
    <path d="M 8,40 A 4,4 0,0,0 4,44" class="nofill"></path>
    <line x1="4" y1="44" x2="4" y2="100" class="solid"></line>
    <line x1="8" y1="40" x2="56" y2="40" class="solid"></line>
    <path d="M 56,40 A 4,4 0,0,1 60,44" class="nofill"></path>
    <line x1="60" y1="44" x2="60" y2="100" class="solid"></line>
    <line x1="60" y1="56" x2="72" y2="56" class="solid"></line>
    <path d="M 72,56 A 4,4 0,0,1 76,60" class="nofill"></path>
    <line x1="76" y1="60" x2="76" y2="84" class="solid"></line>
    <line x1="60" y1="88" x2="72" y2="88" class="solid"></line>
    <path d="M 76,84 A 4,4 0,0,1 72,88" class="nofill"></path>
    <path d="M 4,100 A 4,4 0,0,0 8,104" class="nofill"></path>
    <line x1="8" y1="104" x2="56" y2="104" class="solid"></line>
    <path d="M 60,100 A 4,4 0,0,1 56,104" class="nofill"></path>
  </g>
</svg>